<?xml version="1.0" encoding="UTF-8" standalone="no"?><svg xmlns="http://www.w3.org/2000/svg" xmlns:xlink="http://www.w3.org/1999/xlink" contentScriptType="application/ecmascript" contentStyleType="text/css" height="874px" preserveAspectRatio="none" style="width:548px;height:874px;" version="1.1" viewBox="0 0 548 874" width="548px" zoomAndPan="magnify"><defs><filter height="300%" id="f1k0w90pe9c1be" width="300%" x="-1" y="-1"><feGaussianBlur result="blurOut" stdDeviation="2.0"/><feColorMatrix in="blurOut" result="blurOut2" type="matrix" values="0 0 0 0 0 0 0 0 0 0 0 0 0 0 0 0 0 0 .4 0"/><feOffset dx="4.0" dy="4.0" in="blurOut2" result="blurOut3"/><feBlend in="SourceGraphic" in2="blurOut3" mode="normal"/></filter></defs><g><text fill="#000000" font-family="sans-serif" font-size="18" lengthAdjust="spacingAndGlyphs" textLength="519" x="13.875" y="26.708">BPMN Diagram of the Existing Leave Management Process</text><ellipse cx="300" cy="40.9531" fill="#000000" filter="url(#f1k0w90pe9c1be)" rx="10" ry="10" style="stroke: none; stroke-width: 1.0;"/><rect fill="#FFFFFF" filter="url(#f1k0w90pe9c1be)" height="136.2344" style="stroke: #000000; stroke-width: 2.0;" width="221" x="189.5" y="61.7549"/><path d="M267.5,62.7549 L267.5,71.0518 L257.5,81.0518 L189.5,81.0518 " fill="none" style="stroke: #000000; stroke-width: 2.0;"/><text fill="#000000" font-family="sans-serif" font-size="14" lengthAdjust="spacingAndGlyphs" textLength="68" x="192.5" y="75.75">Employee</text><rect fill="#FEFECE" filter="url(#f1k0w90pe9c1be)" height="33.9688" rx="12.5" ry="12.5" style="stroke: #A80036; stroke-width: 1.5;" width="201" x="199.5" y="98.0518"/><text fill="#000000" font-family="sans-serif" font-size="12" lengthAdjust="spacingAndGlyphs" textLength="181" x="209.5" y="119.1904">Complete leave request form</text><rect fill="#FEFECE" filter="url(#f1k0w90pe9c1be)" height="33.9688" rx="12.5" ry="12.5" style="stroke: #A80036; stroke-width: 1.5;" width="153" x="223.5" y="152.0205"/><text fill="#000000" font-family="sans-serif" font-size="12" lengthAdjust="spacingAndGlyphs" textLength="133" x="233.5" y="173.1592">Submit leave request</text><rect fill="#FFFFFF" filter="url(#f1k0w90pe9c1be)" height="136.2344" style="stroke: #000000; stroke-width: 2.0;" width="268" x="166" y="208.791"/><path d="M273,209.791 L273,218.0879 L263,228.0879 L166,228.0879 " fill="none" style="stroke: #000000; stroke-width: 2.0;"/><text fill="#000000" font-family="sans-serif" font-size="14" lengthAdjust="spacingAndGlyphs" textLength="97" x="169" y="222.7861">Google Forms</text><rect fill="#FEFECE" filter="url(#f1k0w90pe9c1be)" height="33.9688" rx="12.5" ry="12.5" style="stroke: #A80036; stroke-width: 1.5;" width="194" x="203" y="245.0879"/><text fill="#000000" font-family="sans-serif" font-size="12" lengthAdjust="spacingAndGlyphs" textLength="174" x="213" y="266.2266">Record submitted response</text><rect fill="#FEFECE" filter="url(#f1k0w90pe9c1be)" height="33.9688" rx="12.5" ry="12.5" style="stroke: #A80036; stroke-width: 1.5;" width="248" x="176" y="299.0566"/><text fill="#000000" font-family="sans-serif" font-size="12" lengthAdjust="spacingAndGlyphs" textLength="228" x="186" y="320.1953">Notify supervisor via Google account</text><rect fill="#FFFFFF" filter="url(#f1k0w90pe9c1be)" height="254.2031" style="stroke: #000000; stroke-width: 2.0;" width="455" x="70.75" y="355.8271"/><path d="M153.75,356.8271 L153.75,365.124 L143.75,375.124 L70.75,375.124 " fill="none" style="stroke: #000000; stroke-width: 2.0;"/><text fill="#000000" font-family="sans-serif" font-size="14" lengthAdjust="spacingAndGlyphs" textLength="73" x="73.75" y="369.8223">Supervisor</text><rect fill="#FEFECE" filter="url(#f1k0w90pe9c1be)" height="33.9688" rx="12.5" ry="12.5" style="stroke: #A80036; stroke-width: 1.5;" width="142" x="229" y="392.124"/><text fill="#000000" font-family="sans-serif" font-size="12" lengthAdjust="spacingAndGlyphs" textLength="122" x="239" y="413.2627">Receive notification</text><rect fill="#FEFECE" filter="url(#f1k0w90pe9c1be)" height="33.9688" rx="12.5" ry="12.5" style="stroke: #A80036; stroke-width: 1.5;" width="152" x="224" y="446.0928"/><text fill="#000000" font-family="sans-serif" font-size="12" lengthAdjust="spacingAndGlyphs" textLength="132" x="234" y="467.2314">Review leave request</text><polygon fill="#FEFECE" filter="url(#f1k0w90pe9c1be)" points="250,500.0615,350,500.0615,362,512.0615,350,524.0615,250,524.0615,238,512.0615,250,500.0615" style="stroke: #A80036; stroke-width: 1.5;"/><text fill="#000000" font-family="sans-serif" font-size="11" lengthAdjust="spacingAndGlyphs" textLength="100" x="250" y="515.8696">Approve request?</text><text fill="#000000" font-family="sans-serif" font-size="11" lengthAdjust="spacingAndGlyphs" textLength="21" x="217" y="509.4673">Yes</text><text fill="#000000" font-family="sans-serif" font-size="11" lengthAdjust="spacingAndGlyphs" textLength="15" x="362" y="509.4673">No</text><rect fill="#FEFECE" filter="url(#f1k0w90pe9c1be)" height="33.9688" rx="12.5" ry="12.5" style="stroke: #A80036; stroke-width: 1.5;" width="201" x="90.75" y="534.0615"/><text fill="#000000" font-family="sans-serif" font-size="12" lengthAdjust="spacingAndGlyphs" textLength="181" x="100.75" y="555.2002">Enter approved leave in HRIS</text><rect fill="#FEFECE" filter="url(#f1k0w90pe9c1be)" height="33.9688" rx="12.5" ry="12.5" style="stroke: #A80036; stroke-width: 1.5;" width="194" x="311.75" y="534.0615"/><text fill="#000000" font-family="sans-serif" font-size="12" lengthAdjust="spacingAndGlyphs" textLength="174" x="321.75" y="555.2002">Enter rejected leave in HRIS</text><polygon fill="#FEFECE" filter="url(#f1k0w90pe9c1be)" points="300,574.0303,312,586.0303,300,598.0303,288,586.0303,300,574.0303" style="stroke: #A80036; stroke-width: 1.5;"/><rect fill="#FFFFFF" filter="url(#f1k0w90pe9c1be)" height="200.2344" style="stroke: #000000; stroke-width: 2.0;" width="527.75" x="10" y="620.832"/><path d="M52,621.832 L52,630.1289 L42,640.1289 L10,640.1289 " fill="none" style="stroke: #000000; stroke-width: 2.0;"/><text fill="#000000" font-family="sans-serif" font-size="14" lengthAdjust="spacingAndGlyphs" textLength="32" x="13" y="634.8271">HRIS</text><polygon fill="#FEFECE" filter="url(#f1k0w90pe9c1be)" points="228,657.1289,372,657.1289,384,669.1289,372,681.1289,228,681.1289,216,669.1289,228,657.1289" style="stroke: #A80036; stroke-width: 1.5;"/><text fill="#000000" font-family="sans-serif" font-size="11" lengthAdjust="spacingAndGlyphs" textLength="144" x="228" y="672.937">Approved entry received?</text><text fill="#000000" font-family="sans-serif" font-size="11" lengthAdjust="spacingAndGlyphs" textLength="21" x="195" y="666.5347">Yes</text><text fill="#000000" font-family="sans-serif" font-size="11" lengthAdjust="spacingAndGlyphs" textLength="15" x="384" y="666.5347">No</text><rect fill="#FEFECE" filter="url(#f1k0w90pe9c1be)" height="33.9688" rx="12.5" ry="12.5" style="stroke: #A80036; stroke-width: 1.5;" width="285" x="30" y="691.1289"/><text fill="#000000" font-family="sans-serif" font-size="12" lengthAdjust="spacingAndGlyphs" textLength="265" x="40" y="712.2676">Deduct leave days from employee balance</text><rect fill="#FEFECE" filter="url(#f1k0w90pe9c1be)" height="33.9688" rx="12.5" ry="12.5" style="stroke: #A80036; stroke-width: 1.5;" width="164" x="90.5" y="745.0977"/><text fill="#000000" font-family="sans-serif" font-size="12" lengthAdjust="spacingAndGlyphs" textLength="144" x="100.5" y="766.2363">Record approved leave</text><rect fill="#FEFECE" filter="url(#f1k0w90pe9c1be)" height="33.9688" rx="12.5" ry="12.5" style="stroke: #A80036; stroke-width: 1.5;" width="185" x="335" y="691.1289"/><text fill="#000000" font-family="sans-serif" font-size="12" lengthAdjust="spacingAndGlyphs" textLength="165" x="345" y="712.2676">Leave balance unchanged</text><rect fill="#FEFECE" filter="url(#f1k0w90pe9c1be)" height="33.9688" rx="12.5" ry="12.5" style="stroke: #A80036; stroke-width: 1.5;" width="157" x="349" y="745.0977"/><text fill="#000000" font-family="sans-serif" font-size="12" lengthAdjust="spacingAndGlyphs" textLength="137" x="359" y="766.2363">Record rejected leave</text><polygon fill="#FEFECE" filter="url(#f1k0w90pe9c1be)" points="300,785.0664,312,797.0664,300,809.0664,288,797.0664,300,785.0664" style="stroke: #A80036; stroke-width: 1.5;"/><ellipse cx="300" cy="852.0664" fill="#FFFFFF" filter="url(#f1k0w90pe9c1be)" rx="11" ry="11" style="stroke: #000000; stroke-width: 1.0;"/><ellipse cx="300" cy="852.0664" fill="#000000" rx="6" ry="6" style="stroke: #7F7F7F; stroke-width: 1.0;"/><line style="stroke: #A80036; stroke-width: 1.5;" x1="300" x2="300" y1="132.0205" y2="152.0205"/><polygon fill="#A80036" points="296,142.0205,300,152.0205,304,142.0205,300,146.0205" style="stroke: #A80036; stroke-width: 1.0;"/><line style="stroke: #A80036; stroke-width: 1.5;" x1="300" x2="300" y1="50.9531" y2="98.0518"/><polygon fill="#A80036" points="296,88.0518,300,98.0518,304,88.0518,300,92.0518" style="stroke: #A80036; stroke-width: 1.0;"/><line style="stroke: #A80036; stroke-width: 1.5;" x1="300" x2="300" y1="279.0566" y2="299.0566"/><polygon fill="#A80036" points="296,289.0566,300,299.0566,304,289.0566,300,293.0566" style="stroke: #A80036; stroke-width: 1.0;"/><line style="stroke: #A80036; stroke-width: 1.5;" x1="300" x2="300" y1="185.9893" y2="245.0879"/><polygon fill="#A80036" points="296,235.0879,300,245.0879,304,235.0879,300,239.0879" style="stroke: #A80036; stroke-width: 1.0;"/><line style="stroke: #A80036; stroke-width: 1.5;" x1="300" x2="300" y1="426.0928" y2="446.0928"/><polygon fill="#A80036" points="296,436.0928,300,446.0928,304,436.0928,300,440.0928" style="stroke: #A80036; stroke-width: 1.0;"/><line style="stroke: #A80036; stroke-width: 1.5;" x1="238" x2="191.25" y1="512.0615" y2="512.0615"/><line style="stroke: #A80036; stroke-width: 1.5;" x1="191.25" x2="191.25" y1="512.0615" y2="534.0615"/><polygon fill="#A80036" points="187.25,524.0615,191.25,534.0615,195.25,524.0615,191.25,528.0615" style="stroke: #A80036; stroke-width: 1.0;"/><line style="stroke: #A80036; stroke-width: 1.5;" x1="362" x2="408.75" y1="512.0615" y2="512.0615"/><line style="stroke: #A80036; stroke-width: 1.5;" x1="408.75" x2="408.75" y1="512.0615" y2="534.0615"/><polygon fill="#A80036" points="404.75,524.0615,408.75,534.0615,412.75,524.0615,408.75,528.0615" style="stroke: #A80036; stroke-width: 1.0;"/><line style="stroke: #A80036; stroke-width: 1.5;" x1="191.25" x2="191.25" y1="568.0303" y2="586.0303"/><line style="stroke: #A80036; stroke-width: 1.5;" x1="191.25" x2="288" y1="586.0303" y2="586.0303"/><polygon fill="#A80036" points="278,582.0303,288,586.0303,278,590.0303,282,586.0303" style="stroke: #A80036; stroke-width: 1.0;"/><line style="stroke: #A80036; stroke-width: 1.5;" x1="408.75" x2="408.75" y1="568.0303" y2="586.0303"/><line style="stroke: #A80036; stroke-width: 1.5;" x1="408.75" x2="312" y1="586.0303" y2="586.0303"/><polygon fill="#A80036" points="322,582.0303,312,586.0303,322,590.0303,318,586.0303" style="stroke: #A80036; stroke-width: 1.0;"/><line style="stroke: #A80036; stroke-width: 1.5;" x1="300" x2="300" y1="480.0615" y2="500.0615"/><polygon fill="#A80036" points="296,490.0615,300,500.0615,304,490.0615,300,494.0615" style="stroke: #A80036; stroke-width: 1.0;"/><line style="stroke: #A80036; stroke-width: 1.5;" x1="300" x2="300" y1="333.0254" y2="392.124"/><polygon fill="#A80036" points="296,382.124,300,392.124,304,382.124,300,386.124" style="stroke: #A80036; stroke-width: 1.0;"/><line style="stroke: #A80036; stroke-width: 1.5;" x1="172.5" x2="172.5" y1="725.0977" y2="745.0977"/><polygon fill="#A80036" points="168.5,735.0977,172.5,745.0977,176.5,735.0977,172.5,739.0977" style="stroke: #A80036; stroke-width: 1.0;"/><line style="stroke: #A80036; stroke-width: 1.5;" x1="427.5" x2="427.5" y1="725.0977" y2="745.0977"/><polygon fill="#A80036" points="423.5,735.0977,427.5,745.0977,431.5,735.0977,427.5,739.0977" style="stroke: #A80036; stroke-width: 1.0;"/><line style="stroke: #A80036; stroke-width: 1.5;" x1="216" x2="172.5" y1="669.1289" y2="669.1289"/><line style="stroke: #A80036; stroke-width: 1.5;" x1="172.5" x2="172.5" y1="669.1289" y2="691.1289"/><polygon fill="#A80036" points="168.5,681.1289,172.5,691.1289,176.5,681.1289,172.5,685.1289" style="stroke: #A80036; stroke-width: 1.0;"/><line style="stroke: #A80036; stroke-width: 1.5;" x1="384" x2="427.5" y1="669.1289" y2="669.1289"/><line style="stroke: #A80036; stroke-width: 1.5;" x1="427.5" x2="427.5" y1="669.1289" y2="691.1289"/><polygon fill="#A80036" points="423.5,681.1289,427.5,691.1289,431.5,681.1289,427.5,685.1289" style="stroke: #A80036; stroke-width: 1.0;"/><line style="stroke: #A80036; stroke-width: 1.5;" x1="172.5" x2="172.5" y1="779.0664" y2="797.0664"/><line style="stroke: #A80036; stroke-width: 1.5;" x1="172.5" x2="288" y1="797.0664" y2="797.0664"/><polygon fill="#A80036" points="278,793.0664,288,797.0664,278,801.0664,282,797.0664" style="stroke: #A80036; stroke-width: 1.0;"/><line style="stroke: #A80036; stroke-width: 1.5;" x1="427.5" x2="427.5" y1="779.0664" y2="797.0664"/><line style="stroke: #A80036; stroke-width: 1.5;" x1="427.5" x2="312" y1="797.0664" y2="797.0664"/><polygon fill="#A80036" points="322,793.0664,312,797.0664,322,801.0664,318,797.0664" style="stroke: #A80036; stroke-width: 1.0;"/><line style="stroke: #A80036; stroke-width: 1.5;" x1="300" x2="300" y1="598.0303" y2="657.1289"/><polygon fill="#A80036" points="296,647.1289,300,657.1289,304,647.1289,300,651.1289" style="stroke: #A80036; stroke-width: 1.0;"/><line style="stroke: #A80036; stroke-width: 1.5;" x1="300" x2="300" y1="809.0664" y2="841.0664"/><polygon fill="#A80036" points="296,831.0664,300,841.0664,304,831.0664,300,835.0664" style="stroke: #A80036; stroke-width: 1.0;"/><!--MD5=[122fce9c3d420d01399624dd6f3d4c14]
@startuml
!pragma layout smetana
title BPMN Diagram of the Existing Leave Management Process

start
partition "Employee" {
  :Complete leave request form;
  :Submit leave request;
}

partition "Google Forms" {
  :Record submitted response;
  :Notify supervisor via Google account;
}

partition "Supervisor" {
  :Receive notification;
  :Review leave request;
  if (Approve request?) then (Yes)
    :Enter approved leave in HRIS;
  else (No)
    :Enter rejected leave in HRIS;
  endif
}

partition "HRIS" {
  if (Approved entry received?) then (Yes)
    :Deduct leave days from employee balance;
    :Record approved leave;
  else (No)
    :Leave balance unchanged;
    :Record rejected leave;
  endif
}
stop
@enduml

PlantUML version 1.2020.02(Sun Mar 01 10:22:07 UTC 2020)
(GPL source distribution)
Java Runtime: OpenJDK Runtime Environment
JVM: OpenJDK 64-Bit Server VM
Java Version: 25.0.2+10-LTS
Operating System: Linux
Default Encoding: UTF-8
Language: en
Country: null
--></g></svg>