<svg xmlns="http://www.w3.org/2000/svg" xmlns:xlink="http://www.w3.org/1999/xlink" version="1.1" data-diagram-type="ACTIVITY" style="width:801px;height:929px;background:#FFFFFF;" width="801px" height="929px" viewBox="0 0 801 929" zoomAndPan="magnify" preserveAspectRatio="none" contentStyleType="text/css"><?plantuml 1.2026.8?><defs/><g font-family="sans-serif" lengthAdjust="spacing"><g class="title" data-source-line="2"><text x="270.868" y="32.995" fill="#000" font-size="14" textLength="257.77" font-weight="700">Device Change Approval Activity</text></g><ellipse cx="474.415" cy="62.297" rx="10" ry="10" fill="#222" style="stroke:#222;stroke-width:1;"/><rect x="379.392" y="92.297" width="190.045" height="33.969" fill="#F1F1F1" style="stroke:#181818;stroke-width:0.5;" rx="12.5" ry="12.5"/><text x="389.392" y="113.436" fill="#000" font-size="12" textLength="170.045">Login from untrusted device</text><rect x="391.234" y="146.266" width="166.361" height="33.969" fill="#F1F1F1" style="stroke:#181818;stroke-width:0.5;" rx="12.5" ry="12.5"/><text x="401.234" y="167.404" fill="#000" font-size="12" textLength="146.361">Show device differences</text><polygon points="410.612,200.234,538.218,200.234,550.218,212.234,538.218,224.234,410.612,224.234,398.612,212.234,410.612,200.234" fill="#F1F1F1" style="stroke:#181818;stroke-width:0.5;stroke-linejoin:miter;stroke-miterlimit:10;"/><text x="410.612" y="216.042" fill="#000" font-size="11" textLength="127.606">User confirms request?</text><text x="379.603" y="209.64" fill="#000" font-size="11" textLength="19.008">yes</text><text x="550.218" y="209.64" fill="#000" font-size="11" textLength="13.702">no</text><rect x="122.224" y="234.234" width="254.146" height="33.969" fill="#F1F1F1" style="stroke:#181818;stroke-width:0.5;" rx="12.5" ry="12.5"/><text x="132.224" y="255.373" fill="#000" font-size="12" textLength="234.146">Create pending device-change request</text><polygon points="190.417,288.203,308.178,288.203,320.178,300.203,308.178,312.203,190.417,312.203,178.417,300.203,190.417,288.203" fill="#F1F1F1" style="stroke:#181818;stroke-width:0.5;stroke-linejoin:miter;stroke-miterlimit:10;"/><text x="190.417" y="304.011" fill="#000" font-size="11" textLength="117.761">Supervisor available?</text><text x="159.409" y="297.609" fill="#000" font-size="11" textLength="19.008">yes</text><text x="320.178" y="297.609" fill="#000" font-size="11" textLength="13.702">no</text><rect x="96.894" y="322.203" width="137.803" height="33.969" fill="#F1F1F1" style="stroke:#181818;stroke-width:0.5;" rx="12.5" ry="12.5"/><text x="106.894" y="343.342" fill="#000" font-size="12" textLength="117.803">Route to supervisor</text><rect x="254.697" y="322.203" width="156.207" height="33.969" fill="#F1F1F1" style="stroke:#181818;stroke-width:0.5;" rx="12.5" ry="12.5"/><text x="264.697" y="343.342" fill="#000" font-size="12" textLength="136.207">Route to administrator</text><polygon points="249.298,362.172,261.298,374.172,249.298,386.172,237.298,374.172,249.298,362.172" fill="#F1F1F1" style="stroke:#181818;stroke-width:0.5;stroke-linejoin:miter;stroke-miterlimit:10;"/><rect x="128.465" y="406.172" width="241.666" height="33.969" fill="#F1F1F1" style="stroke:#181818;stroke-width:0.5;" rx="12.5" ry="12.5"/><text x="138.465" y="427.311" fill="#000" font-size="12" textLength="221.666">Approver reviews device information</text><polygon points="200.756,460.141,297.839,460.141,309.839,472.141,297.839,484.141,200.756,484.141,188.756,472.141,200.756,460.141" fill="#F1F1F1" style="stroke:#181818;stroke-width:0.5;stroke-linejoin:miter;stroke-miterlimit:10;"/><text x="200.756" y="475.949" fill="#000" font-size="11" textLength="97.083">Approver rejects?</text><text x="169.748" y="469.546" fill="#000" font-size="11" textLength="19.008">yes</text><text x="309.839" y="469.546" fill="#000" font-size="11" textLength="13.702">no</text><rect x="16" y="494.141" width="152.434" height="33.969" fill="#F1F1F1" style="stroke:#181818;stroke-width:0.5;" rx="12.5" ry="12.5"/><text x="26" y="515.279" fill="#000" font-size="12" textLength="132.434">Mark request rejected</text><rect x="315.888" y="494.141" width="180.98" height="33.969" fill="#F1F1F1" style="stroke:#181818;stroke-width:0.5;" rx="12.5" ry="12.5"/><text x="325.888" y="515.279" fill="#000" font-size="12" textLength="160.98">Request passkey assertion</text><rect x="250.89" y="548.109" width="310.977" height="33.969" fill="#F1F1F1" style="stroke:#181818;stroke-width:0.5;" rx="12.5" ry="12.5"/><text x="260.89" y="569.248" fill="#000" font-size="12" textLength="290.977">Verify approver role and passkey device binding</text><polygon points="362.865,602.078,449.892,602.078,461.892,614.078,449.892,626.078,362.865,626.078,350.865,614.078,362.865,602.078" fill="#F1F1F1" style="stroke:#181818;stroke-width:0.5;stroke-linejoin:miter;stroke-miterlimit:10;"/><text x="362.865" y="617.886" fill="#000" font-size="11" textLength="87.028">Assertion valid?</text><text x="331.856" y="611.484" fill="#000" font-size="11" textLength="19.008">yes</text><text x="461.892" y="611.484" fill="#000" font-size="11" textLength="13.702">no</text><rect x="198.434" y="636.078" width="225.857" height="33.969" fill="#F1F1F1" style="stroke:#181818;stroke-width:0.5;" rx="12.5" ry="12.5"/><text x="208.434" y="657.217" fill="#000" font-size="12" textLength="205.857">Trust requested device fingerprint</text><rect x="218.883" y="690.047" width="184.959" height="33.969" fill="#F1F1F1" style="stroke:#181818;stroke-width:0.5;" rx="12.5" ry="12.5"/><text x="228.883" y="711.186" fill="#000" font-size="12" textLength="164.959">Invalidate existing sessions</text><rect x="231.331" y="744.016" width="160.063" height="33.969" fill="#F1F1F1" style="stroke:#181818;stroke-width:0.5;" rx="12.5" ry="12.5"/><text x="241.331" y="765.154" fill="#000" font-size="12" textLength="140.063">Mark request approved</text><rect x="444.291" y="636.078" width="114.207" height="33.969" fill="#F1F1F1" style="stroke:#181818;stroke-width:0.5;" rx="12.5" ry="12.5"/><text x="454.291" y="657.217" fill="#000" font-size="12" textLength="94.207">Reject approval</text><polygon points="406.378,783.984,418.378,795.984,406.378,807.984,394.378,795.984,406.378,783.984" fill="#F1F1F1" style="stroke:#181818;stroke-width:0.5;stroke-linejoin:miter;stroke-miterlimit:10;"/><polygon points="249.298,813.984,261.298,825.984,249.298,837.984,237.298,825.984,249.298,813.984" fill="#F1F1F1" style="stroke:#181818;stroke-width:0.5;stroke-linejoin:miter;stroke-miterlimit:10;"/><rect x="579.437" y="234.234" width="202.068" height="33.969" fill="#F1F1F1" style="stroke:#181818;stroke-width:0.5;" rx="12.5" ry="12.5"/><text x="589.437" y="255.373" fill="#000" font-size="12" textLength="182.068">Cancel device-change request</text><polygon points="474.415,843.984,486.415,855.984,474.415,867.984,462.415,855.984,474.415,843.984" fill="#F1F1F1" style="stroke:#181818;stroke-width:0.5;stroke-linejoin:miter;stroke-miterlimit:10;"/><ellipse cx="474.415" cy="898.984" rx="11" ry="11" fill="none" style="stroke:#222;stroke-width:1;"/><ellipse cx="474.415" cy="898.984" rx="6" ry="6" fill="#222" style="stroke:#222;stroke-width:1;"/><line x1="474.415" y1="72.297" x2="474.415" y2="92.297" style="stroke:#181818;stroke-width:1;"/><polygon points="470.415,82.297,474.415,92.297,478.415,82.297,474.415,86.297" fill="#181818" style="stroke:#181818;stroke-width:1;stroke-linejoin:miter;stroke-miterlimit:10;"/><line x1="474.415" y1="126.266" x2="474.415" y2="146.266" style="stroke:#181818;stroke-width:1;"/><polygon points="470.415,136.266,474.415,146.266,478.415,136.266,474.415,140.266" fill="#181818" style="stroke:#181818;stroke-width:1;stroke-linejoin:miter;stroke-miterlimit:10;"/><line x1="178.417" y1="300.203" x2="165.795" y2="300.203" style="stroke:#181818;stroke-width:1;"/><line x1="165.795" y1="300.203" x2="165.795" y2="322.203" style="stroke:#181818;stroke-width:1;"/><polygon points="161.795,312.203,165.795,322.203,169.795,312.203,165.795,316.203" fill="#181818" style="stroke:#181818;stroke-width:1;stroke-linejoin:miter;stroke-miterlimit:10;"/><line x1="320.178" y1="300.203" x2="332.8" y2="300.203" style="stroke:#181818;stroke-width:1;"/><line x1="332.8" y1="300.203" x2="332.8" y2="322.203" style="stroke:#181818;stroke-width:1;"/><polygon points="328.8,312.203,332.8,322.203,336.8,312.203,332.8,316.203" fill="#181818" style="stroke:#181818;stroke-width:1;stroke-linejoin:miter;stroke-miterlimit:10;"/><line x1="165.795" y1="356.172" x2="165.795" y2="374.172" style="stroke:#181818;stroke-width:1;"/><line x1="165.795" y1="374.172" x2="237.298" y2="374.172" style="stroke:#181818;stroke-width:1;"/><polygon points="227.298,370.172,237.298,374.172,227.298,378.172,231.298,374.172" fill="#181818" style="stroke:#181818;stroke-width:1;stroke-linejoin:miter;stroke-miterlimit:10;"/><line x1="332.8" y1="356.172" x2="332.8" y2="374.172" style="stroke:#181818;stroke-width:1;"/><line x1="332.8" y1="374.172" x2="261.298" y2="374.172" style="stroke:#181818;stroke-width:1;"/><polygon points="271.298,370.172,261.298,374.172,271.298,378.172,267.298,374.172" fill="#181818" style="stroke:#181818;stroke-width:1;stroke-linejoin:miter;stroke-miterlimit:10;"/><line x1="249.298" y1="268.203" x2="249.298" y2="288.203" style="stroke:#181818;stroke-width:1;"/><polygon points="245.298,278.203,249.298,288.203,253.298,278.203,249.298,282.203" fill="#181818" style="stroke:#181818;stroke-width:1;stroke-linejoin:miter;stroke-miterlimit:10;"/><line x1="249.298" y1="386.172" x2="249.298" y2="406.172" style="stroke:#181818;stroke-width:1;"/><polygon points="245.298,396.172,249.298,406.172,253.298,396.172,249.298,400.172" fill="#181818" style="stroke:#181818;stroke-width:1;stroke-linejoin:miter;stroke-miterlimit:10;"/><line x1="406.378" y1="528.109" x2="406.378" y2="548.109" style="stroke:#181818;stroke-width:1;"/><polygon points="402.378,538.109,406.378,548.109,410.378,538.109,406.378,542.109" fill="#181818" style="stroke:#181818;stroke-width:1;stroke-linejoin:miter;stroke-miterlimit:10;"/><line x1="311.362" y1="670.047" x2="311.362" y2="690.047" style="stroke:#181818;stroke-width:1;"/><polygon points="307.362,680.047,311.362,690.047,315.362,680.047,311.362,684.047" fill="#181818" style="stroke:#181818;stroke-width:1;stroke-linejoin:miter;stroke-miterlimit:10;"/><line x1="311.362" y1="724.016" x2="311.362" y2="744.016" style="stroke:#181818;stroke-width:1;"/><polygon points="307.362,734.016,311.362,744.016,315.362,734.016,311.362,738.016" fill="#181818" style="stroke:#181818;stroke-width:1;stroke-linejoin:miter;stroke-miterlimit:10;"/><line x1="350.865" y1="614.078" x2="311.362" y2="614.078" style="stroke:#181818;stroke-width:1;"/><line x1="311.362" y1="614.078" x2="311.362" y2="636.078" style="stroke:#181818;stroke-width:1;"/><polygon points="307.362,626.078,311.362,636.078,315.362,626.078,311.362,630.078" fill="#181818" style="stroke:#181818;stroke-width:1;stroke-linejoin:miter;stroke-miterlimit:10;"/><line x1="461.892" y1="614.078" x2="501.395" y2="614.078" style="stroke:#181818;stroke-width:1;"/><line x1="501.395" y1="614.078" x2="501.395" y2="636.078" style="stroke:#181818;stroke-width:1;"/><polygon points="497.395,626.078,501.395,636.078,505.395,626.078,501.395,630.078" fill="#181818" style="stroke:#181818;stroke-width:1;stroke-linejoin:miter;stroke-miterlimit:10;"/><line x1="311.362" y1="777.984" x2="311.362" y2="795.984" style="stroke:#181818;stroke-width:1;"/><line x1="311.362" y1="795.984" x2="394.378" y2="795.984" style="stroke:#181818;stroke-width:1;"/><polygon points="384.378,791.984,394.378,795.984,384.378,799.984,388.378,795.984" fill="#181818" style="stroke:#181818;stroke-width:1;stroke-linejoin:miter;stroke-miterlimit:10;"/><line x1="501.395" y1="670.047" x2="501.395" y2="795.984" style="stroke:#181818;stroke-width:1;"/><line x1="501.395" y1="795.984" x2="418.378" y2="795.984" style="stroke:#181818;stroke-width:1;"/><polygon points="428.378,791.984,418.378,795.984,428.378,799.984,424.378,795.984" fill="#181818" style="stroke:#181818;stroke-width:1;stroke-linejoin:miter;stroke-miterlimit:10;"/><line x1="406.378" y1="582.078" x2="406.378" y2="602.078" style="stroke:#181818;stroke-width:1;"/><polygon points="402.378,592.078,406.378,602.078,410.378,592.078,406.378,596.078" fill="#181818" style="stroke:#181818;stroke-width:1;stroke-linejoin:miter;stroke-miterlimit:10;"/><line x1="188.756" y1="472.141" x2="92.217" y2="472.141" style="stroke:#181818;stroke-width:1;"/><line x1="92.217" y1="472.141" x2="92.217" y2="494.141" style="stroke:#181818;stroke-width:1;"/><polygon points="88.217,484.141,92.217,494.141,96.217,484.141,92.217,488.141" fill="#181818" style="stroke:#181818;stroke-width:1;stroke-linejoin:miter;stroke-miterlimit:10;"/><line x1="309.839" y1="472.141" x2="406.378" y2="472.141" style="stroke:#181818;stroke-width:1;"/><line x1="406.378" y1="472.141" x2="406.378" y2="494.141" style="stroke:#181818;stroke-width:1;"/><polygon points="402.378,484.141,406.378,494.141,410.378,484.141,406.378,488.141" fill="#181818" style="stroke:#181818;stroke-width:1;stroke-linejoin:miter;stroke-miterlimit:10;"/><line x1="92.217" y1="528.109" x2="92.217" y2="825.984" style="stroke:#181818;stroke-width:1;"/><line x1="92.217" y1="825.984" x2="237.298" y2="825.984" style="stroke:#181818;stroke-width:1;"/><polygon points="227.298,821.984,237.298,825.984,227.298,829.984,231.298,825.984" fill="#181818" style="stroke:#181818;stroke-width:1;stroke-linejoin:miter;stroke-miterlimit:10;"/><line x1="406.378" y1="807.984" x2="406.378" y2="825.984" style="stroke:#181818;stroke-width:1;"/><line x1="406.378" y1="825.984" x2="261.298" y2="825.984" style="stroke:#181818;stroke-width:1;"/><polygon points="271.298,821.984,261.298,825.984,271.298,829.984,267.298,825.984" fill="#181818" style="stroke:#181818;stroke-width:1;stroke-linejoin:miter;stroke-miterlimit:10;"/><line x1="249.298" y1="440.141" x2="249.298" y2="460.141" style="stroke:#181818;stroke-width:1;"/><polygon points="245.298,450.141,249.298,460.141,253.298,450.141,249.298,454.141" fill="#181818" style="stroke:#181818;stroke-width:1;stroke-linejoin:miter;stroke-miterlimit:10;"/><line x1="398.612" y1="212.234" x2="249.298" y2="212.234" style="stroke:#181818;stroke-width:1;"/><line x1="249.298" y1="212.234" x2="249.298" y2="234.234" style="stroke:#181818;stroke-width:1;"/><polygon points="245.298,224.234,249.298,234.234,253.298,224.234,249.298,228.234" fill="#181818" style="stroke:#181818;stroke-width:1;stroke-linejoin:miter;stroke-miterlimit:10;"/><line x1="550.218" y1="212.234" x2="680.472" y2="212.234" style="stroke:#181818;stroke-width:1;"/><line x1="680.472" y1="212.234" x2="680.472" y2="234.234" style="stroke:#181818;stroke-width:1;"/><polygon points="676.472,224.234,680.472,234.234,684.472,224.234,680.472,228.234" fill="#181818" style="stroke:#181818;stroke-width:1;stroke-linejoin:miter;stroke-miterlimit:10;"/><line x1="249.298" y1="837.984" x2="249.298" y2="855.984" style="stroke:#181818;stroke-width:1;"/><line x1="249.298" y1="855.984" x2="462.415" y2="855.984" style="stroke:#181818;stroke-width:1;"/><polygon points="452.415,851.984,462.415,855.984,452.415,859.984,456.415,855.984" fill="#181818" style="stroke:#181818;stroke-width:1;stroke-linejoin:miter;stroke-miterlimit:10;"/><line x1="680.472" y1="268.203" x2="680.472" y2="855.984" style="stroke:#181818;stroke-width:1;"/><line x1="680.472" y1="855.984" x2="486.415" y2="855.984" style="stroke:#181818;stroke-width:1;"/><polygon points="496.415,851.984,486.415,855.984,496.415,859.984,492.415,855.984" fill="#181818" style="stroke:#181818;stroke-width:1;stroke-linejoin:miter;stroke-miterlimit:10;"/><line x1="474.415" y1="180.234" x2="474.415" y2="200.234" style="stroke:#181818;stroke-width:1;"/><polygon points="470.415,190.234,474.415,200.234,478.415,190.234,474.415,194.234" fill="#181818" style="stroke:#181818;stroke-width:1;stroke-linejoin:miter;stroke-miterlimit:10;"/><line x1="474.415" y1="867.984" x2="474.415" y2="887.984" style="stroke:#181818;stroke-width:1;"/><polygon points="470.415,877.984,474.415,887.984,478.415,877.984,474.415,881.984" fill="#181818" style="stroke:#181818;stroke-width:1;stroke-linejoin:miter;stroke-miterlimit:10;"/><?plantuml-src TLAxKiD03Epp5Q8B1J-G50mJ6cQWuTKhFbqYiE-C93laxv7DsRn2vSVjhdQrTzOAxXg46e-vCz2631CkmDXgWclgkIBOx37j2AxQLdAFDLnLnZtRSG5gABQ0rMtUSO8ekO4kcNHg522CxBKVF-ppeNn2u1X9A5MaViGHbazA0bLEaQLH47hhIEto76nF2PP7qlC50AmsGcW4BQN0QLVaBgfFRuMr7f23vaFNalIiMG1xv1gtDVsHTD5xJqrW6NGcZ1fKAy4ovJyu30qdLXEq2Uf-ukZmSq4UHjmR7NIAp2bcQT0ufzdWD-mBLQQdpDsXl4x92ex2QNi5rABgAnt17oJpF0Syat3q__FKxFLY2ZEZMDtokDr26urEKk3LSpZXq-KVXyedgtFr45sAf1LEjfwnDsaK6hgaTz_aKAQIge_GBzIFxCLsACU_qe_vX-KK7DOJRcgclFpWhJReTx3-znuLZbfkFm00?></g></svg>